<svg fill="none" height="110" viewBox="0 0 110 110" width="110" xmlns="http://www.w3.org/2000/svg"><path clip-rule="evenodd" d="m53.6027 17.5784v16.6306c.4631-.0323.9261-.0485 1.3946-.0485.4684 0 .9315.0162 1.3946.0485v-17.1045c.9422.0323 1.8684.1023 2.7945.2047v-17.153019c-1.3838-.1023255-2.7784-.156181-4.1891-.156181-1.4108 0-2.8054.0538555-4.1892.156181v17.153019c.9208-.1024 1.8523-.1724 2.7946-.2047v.4686zm-11.8351 1.8742.1454.4524 5.1422 15.8228c.9746-.4039 1.9922-.7325 3.0368-.9856l-5.1422-15.8281-.1454-.447c.77-.2154 1.5454-.4093 2.3315-.5709l-5.2983-16.30743c-2.6061.64088-5.1422 1.46487-7.5922 2.46119l5.2984 16.31284c.7269-.3285 1.47-.6301 2.2238-.9102zm-10.4836 5.9619.2692.3662 9.7944 13.48c.9046-.7809 1.8738-1.4918 2.9023-2.1111l-9.7944-13.4801-.2693-.3662c.5546-.3716 1.1146-.7216 1.6962-1.0555l-10.0744-13.86783c-2.1485 1.34639-4.1946 2.83823-6.1276 4.45923l10.0744 13.8678c.5008-.4416 1.0069-.8778 1.5292-1.2925zm-7.7375 9.2037-.3608-.2639-.0054.0054c-.2908.447-.5708.9048-.84 1.3625l-13.85969-10.0709c1.27613-2.0304 2.69229-3.9746 4.22149-5.811l13.8597 10.0709c-.3554.3986-.7.8079-1.0339 1.2226l.3608.2585 13.4936 9.8071c-.8777.9909-1.6638 2.0734-2.3477 3.2259zm-5.2392 10.7712.4254.1346 15.8789 5.1594c.3015-1.4541.7592-2.849 1.3569-4.1738l-15.8843-5.1594-.42-.1346c.1454-.3716.2962-.7432.4523-1.1094l-16.2935-5.294c-.82382 2.0896-1.52919 4.2384-2.09457 6.4411l16.29347 5.2994c.0862-.3932.1831-.7756.2854-1.1633zm15.992 12.0097h-17.1443v.0108c.0162.2693.0377.5332.0593.7971h-17.1227634c-.0592296-1.061-.0915366-2.1165-.0915366-3.1937 0-1.0771.032307-2.138.0915366-3.1936h17.1227634v.0001c-.0216.2638-.0431.5277-.0593.797h17.1443c-.0916.7809-.14 1.5833-.14 2.3912 0 .8078.0484 1.6049.14 2.3911zm-14.0966 11.6382-.3912.1286c.0478.1223.0957.2446.1489.3669l-16.28277 5.2886c-.71614-1.8473-1.32998-3.743-1.84689-5.6872l16.28276-5.2886.0969.3878.3931-.1293 15.9219-5.1755c.3285 1.7288.8723 3.3875 1.6046 4.9332zm6.1652 10.2273-.3177.2315-.49.3501-13.3589 9.7048c-1.1685-1.4487-2.26151-2.9567-3.28457-4.5185l13.36437-9.7102.4792-.3446.3231-.237 13.5635-9.8556c.8938 1.6534 1.9977 3.1721 3.2846 4.5185zm61.8787-42.5029 13.8974-10.0979c-1.653-2.7466-3.5376-5.3317-5.6322-7.739l-13.8974 10.0979c2.1915 2.3211 4.0814 4.9224 5.6322 7.739zm-11.7785-13.0077-.2828.3895-9.7567 13.437c.56.3608 1.0931.7593 1.61 1.174l9.7621-13.4369.2854-.3932c.953.7325 1.8684 1.508 2.7461 2.3266l10.0905-13.8947c-2.3153-1.9927-4.7922-3.80222-7.4198-5.39635l-10.0852 13.89475c1.0491.5811 2.0659 1.216 3.0504 1.8993zm-13.9056 11.8284c-.7377-.2909-1.4969-.5386-2.2723-.7379h.0054l5.1315-15.8066.1507-.4631c-1.023-.2962-2.0569-.5493-3.1122-.7594l5.3037-16.32358c2.8753.68396 5.6645 1.59412 8.346 2.70893l-5.3091 16.32895c-.9639-.4523-1.9492-.8509-2.9561-1.2117l-.1508.4631zm-22.1087 34.3543-10.0959 13.9001c.0176.0148.0351.0299.0525.045.0155.0134.0308.0268.0462.0402l.0001.0001c.0673.0589.1338.117.2027.1678l-.3446.4793-9.7083 13.3669c1.3462 1.0825 2.7461 2.1009 4.1946 3.0539l9.7136-13.3726.3392-.4739c.0378.0234.0755.0473.1132.0713l.0001.0001c.0753.0478.1506.0956.2259.1386l10.096-13.9001c-1.7769-.9371-3.4084-2.1273-4.8353-3.5167zm52.4396-16.1295h.5169l.0054-.0162h16.5683c.016.3985.016.7971.016 1.1956s-.005.7971-.016 1.1956h-17.0852c-.0323 1.0771-.1131 2.1435-.2315 3.1936h-10.6183l10.096 3.2798c-.1939.9156-.4146 1.8257-.6677 2.7197l.4846.1616 15.7661 5.1217c-.264.894-.555 1.7826-.862 2.655l-15.771-5.1216-.4846-.1616c-.3231.8779-.6785 1.7449-1.0608 2.5905l-11.329-3.6784 9.6222 6.9905c-.3985.6947-.8239 1.3787-1.2654 2.0411l.4254.3124 13.4022 9.737c-.6033.8779-1.2279 1.7396-1.8794 2.5797l-13.3966-9.7371-.4308-.3123c-.4954.6301-1.0123 1.244-1.5507 1.8365l-10.6506-7.7445 7.7322 10.6419c-.4954.447-1.0069.8832-1.5292 1.2925l.3177.4362 9.7298 13.3939c-.9423.7378-1.9115 1.4433-2.9023 2.1167l-9.7298-13.3994-.3123-.4363c-.5546.3717-1.1254.7217-1.7015 1.0556l-8.4967-11.6974 4.4637 13.7439c-.49.2154-.98.4147-1.4807.6086l.1669.517 5.1153 15.747c-1.2438.458-2.5092.873-3.7907 1.234l-5.1153-15.7477-.1669-.517c-.5169.14-1.0338.2693-1.5561.3824l-4.8622-14.9665v15.715c-.3931.0324-.7916.0647-1.1954.0862v17.1046c-.7215.027-1.4592.043-2.1915.043s-1.4646-.016-2.1915-.043v-17.1046c-.4038-.0161-.8023-.0485-1.1954-.0862v-17.0021l-5.2552 16.162c-.0862-.0216-.173-.0425-.2598-.0635-.1734-.0418-.3469-.0837-.5156-.1304l-.1777.5386-5.1099 15.7312c-1.5507-.425-3.0691-.921-4.5553-1.476l5.1153-15.7363.1777-.5331c-.2477-.097-.4954-.1993-.7431-.3016l5.3145-16.3559c1.8577.9424 3.8769 1.6156 6.0091 1.9603v-.2208h.1347l-.0754.2316c1.0876.1777 2.2022.2693 3.333.2693.9961 0 1.9707-.07 2.9292-.2047.1561-.0215.3069-.0431.463-.07 1.9708-.3231 3.8499-.9209 5.5945-1.7557.2585-.1239.5223-.2531.7754-.3931 1.6207-.8563 3.1122-1.9281 4.4422-3.1667.3123-.2909.6138-.5871.91-.8994 1.1577-1.2225 2.1699-2.5851 3.0099-4.0607.2746-.4847.5331-.9802.77-1.4918.6569-1.3949 1.1577-2.8705 1.4861-4.4162.14-.6732.2531-1.3625.3285-2.0626.0861-.7648.1292-1.5403.1292-2.3266 0-.6624-.0323-1.3248-.0969-1.9765-.0754-.8132-.1992-1.621-.3662-2.4073-.4738-2.2243-1.303-4.3085-2.423-6.2042l-.0215-.0592 16.455-5.3479c.5062 1.0879.9638 2.1973 1.3623 3.3337l.4792-.1562 15.7768-5.1271c.215.6302.42 1.2603.614 1.9011l-15.7769 5.1271-.4739.1562c.3339 1.1471.6246 2.3104.8508 3.4952l-8.8683 2.8866h9.3152c.1184 1.0502.1992 2.1166.2315 3.1937z" fill="#000" fill-rule="evenodd"/></svg>